<svg width="25" height="25" viewBox="0 0 25 25" fill="none" xmlns="http://www.w3.org/2000/svg">
<g clip-path="url(#clip0_138_1155)">
<path d="M10.1617 11.2054L9.51092 12.3047C9.99027 12.9604 10.5459 13.5567 11.1662 14.0811C11.8003 14.5953 12.4958 15.0288 13.2366 15.3716L14.8205 14.558C15.8633 13.7683 17.281 13.6735 18.4006 14.3191L20.1121 15.3057C20.8032 15.7003 21.3137 16.3485 21.5352 17.1129C21.7567 17.8773 21.672 18.698 21.2989 19.401C19.998 21.8875 17.8862 22.1462 14.9987 21.1996C12.4596 20.364 10.0965 19.067 8.02814 17.3738C5.96063 15.6918 4.23559 13.6281 2.94684 11.2951C1.50291 8.66805 1.89945 7.4795 4.16407 5.79503C5.51402 4.78934 7.41466 4.97994 8.49935 6.23019L9.77865 7.70447C10.6198 8.67534 10.7736 10.0604 10.1617 11.2054Z" fill="white"/>
</g>
<defs>
<clipPath id="clip0_138_1155">
<rect width="25" height="25" fill="white"/>
</clipPath>
</defs>
</svg>
