<svg width="25" height="25" viewBox="0 0 25 25" fill="none" xmlns="http://www.w3.org/2000/svg">
<g clip-path="url(#clip0_75_81)">
<path d="M10.1617 11.2055L9.51098 12.3048C9.99033 12.9605 10.546 13.5568 11.1663 14.0812C11.8004 14.5953 12.4958 15.0288 13.2367 15.3717L14.8206 14.558C15.8634 13.7683 17.2811 13.6736 18.4006 14.3192L20.1121 15.3058C20.8033 15.7004 21.3137 16.3485 21.5352 17.113C21.7568 17.8774 21.672 18.698 21.2989 19.401C19.998 21.8876 17.8862 22.1463 14.9988 21.1997C12.4597 20.3641 10.0966 19.0671 8.0282 17.3739C5.96069 15.6918 4.23565 13.6282 2.9469 11.2952C1.50297 8.66811 1.89951 7.47956 4.16413 5.7951C5.51408 4.7894 7.41472 4.98001 8.49941 6.23025L9.77871 7.70453C10.6198 8.6754 10.7737 10.0605 10.1617 11.2055Z" fill="#375FFF"/>
</g>
<defs>
<clipPath id="clip0_75_81">
<rect width="25" height="25" fill="white"/>
</clipPath>
</defs>
</svg>
