<svg width="25" height="25" viewBox="0 0 25 25" fill="none" xmlns="http://www.w3.org/2000/svg">
<path d="M8.4375 12.5C9.51494 12.5 10.5483 12.072 11.3101 11.3101C12.072 10.5483 12.5 9.51494 12.5 8.4375C12.5 7.36006 12.072 6.32675 11.3101 5.56488C10.5483 4.80301 9.51494 4.375 8.4375 4.375C7.36006 4.375 6.32675 4.80301 5.56488 5.56488C4.80301 6.32675 4.375 7.36006 4.375 8.4375C4.375 9.51494 4.80301 10.5483 5.56488 11.3101C6.32675 12.072 7.36006 12.5 8.4375 12.5ZM15.5463 18.9313C16.2088 19.2025 17.0512 19.375 18.1237 19.375C23.1237 19.375 23.1238 15.625 23.1238 15.625C23.1238 15.1279 22.9264 14.6512 22.575 14.2996C22.2237 13.948 21.7471 13.7503 21.25 13.75H15.465C15.9562 14.345 16.2513 15.1062 16.2513 15.9375V16.3825C16.2487 16.4878 16.2416 16.5929 16.23 16.6975C16.1457 17.4785 15.9128 18.2365 15.5463 18.9313ZM21.25 9.375C21.25 10.2038 20.9208 10.9987 20.3347 11.5847C19.7487 12.1708 18.9538 12.5 18.125 12.5C17.2962 12.5 16.5013 12.1708 15.9153 11.5847C15.3292 10.9987 15 10.2038 15 9.375C15 8.5462 15.3292 7.75134 15.9153 7.16529C16.5013 6.57924 17.2962 6.25 18.125 6.25C18.9538 6.25 19.7487 6.57924 20.3347 7.16529C20.9208 7.75134 21.25 8.5462 21.25 9.375ZM1.875 16.25C1.875 15.587 2.13839 14.9511 2.60723 14.4822C3.07607 14.0134 3.71196 13.75 4.375 13.75H12.5C13.163 13.75 13.7989 14.0134 14.2678 14.4822C14.7366 14.9511 15 15.587 15 16.25C15 16.25 15 21.25 8.4375 21.25C1.875 21.25 1.875 16.25 1.875 16.25Z" fill="white"/>
</svg>
