<svg width="25" height="25" viewBox="0 0 25 25" fill="none" xmlns="http://www.w3.org/2000/svg">
<path d="M12.5 3.125C10.8735 3.12445 9.27485 3.54707 7.86112 4.35133C6.4474 5.15558 5.26723 6.3138 4.43659 7.71219C3.60594 9.11057 3.1534 10.701 3.12342 12.3272C3.09344 13.9534 3.48706 15.5595 4.26561 16.9875L3.15623 20.8781C3.1172 21.0147 3.11616 21.1594 3.15322 21.2966C3.19029 21.4337 3.26406 21.5582 3.3666 21.6566C3.46914 21.7549 3.59655 21.8234 3.73514 21.8548C3.87373 21.8861 4.01823 21.8791 4.15311 21.8344L7.80623 20.6172C9.05133 21.3367 10.4452 21.7601 11.8802 21.8547C13.3151 21.9493 14.7525 21.7125 16.0813 21.1627C17.4101 20.6129 18.5945 19.7648 19.5431 18.6839C20.4916 17.6031 21.1788 16.3186 21.5515 14.9297C21.9242 13.5408 21.9724 12.0848 21.6924 10.6743C21.4123 9.26378 20.8115 7.93661 19.9365 6.79544C19.0615 5.65427 17.9357 4.72969 16.6462 4.09323C15.3567 3.45677 13.938 3.12548 12.5 3.125ZM9.37498 10.9375C9.37498 10.7303 9.45729 10.5316 9.60381 10.3851C9.75032 10.2386 9.94903 10.1563 10.1562 10.1563H14.8437C15.0509 10.1563 15.2496 10.2386 15.3962 10.3851C15.5427 10.5316 15.625 10.7303 15.625 10.9375C15.625 11.1447 15.5427 11.3434 15.3962 11.4899C15.2496 11.6364 15.0509 11.7188 14.8437 11.7188H10.1562C9.94903 11.7188 9.75032 11.6364 9.60381 11.4899C9.45729 11.3434 9.37498 11.1447 9.37498 10.9375ZM10.1562 13.2813H13.2812C13.4884 13.2813 13.6871 13.3636 13.8337 13.5101C13.9802 13.6566 14.0625 13.8553 14.0625 14.0625C14.0625 14.2697 13.9802 14.4684 13.8337 14.6149C13.6871 14.7614 13.4884 14.8438 13.2812 14.8438H10.1562C9.94903 14.8438 9.75032 14.7614 9.60381 14.6149C9.45729 14.4684 9.37498 14.2697 9.37498 14.0625C9.37498 13.8553 9.45729 13.6566 9.60381 13.5101C9.75032 13.3636 9.94903 13.2813 10.1562 13.2813Z" fill="white"/>
</svg>
