<svg width="19" height="19" viewBox="0 0 19 19" fill="none" xmlns="http://www.w3.org/2000/svg">
<path d="M9.5 0.125001C7.87351 0.124453 6.27487 0.54707 4.86114 1.35133C3.44741 2.15558 2.26725 3.3138 1.4366 4.71219C0.605956 6.11057 0.153411 7.70101 0.123434 9.32721C0.0934572 10.9534 0.487079 12.5595 1.26562 13.9875L0.156248 17.8781C0.117212 18.0147 0.116172 18.1594 0.15324 18.2966C0.190308 18.4337 0.264079 18.5582 0.366615 18.6566C0.469151 18.7549 0.596569 18.8234 0.735155 18.8548C0.873741 18.8861 1.01825 18.8791 1.15312 18.8344L4.80625 17.6172C6.05134 18.3367 7.44526 18.7601 8.88018 18.8547C10.3151 18.9493 11.7525 18.7125 13.0813 18.1627C14.4101 17.6129 15.5946 16.7648 16.5431 15.6839C17.4917 14.6031 18.1789 13.3186 18.5515 11.9297C18.9242 10.5408 18.9724 9.08477 18.6924 7.67427C18.4123 6.26378 17.8116 4.93661 16.9365 3.79544C16.0615 2.65427 14.9357 1.72969 13.6462 1.09323C12.3567 0.456767 10.938 0.125481 9.5 0.125001ZM6.375 7.9375C6.375 7.7303 6.45731 7.53159 6.60382 7.38507C6.75033 7.23856 6.94905 7.15625 7.15625 7.15625H11.8437C12.0509 7.15625 12.2497 7.23856 12.3962 7.38507C12.5427 7.53159 12.625 7.7303 12.625 7.9375C12.625 8.1447 12.5427 8.34342 12.3962 8.48993C12.2497 8.63644 12.0509 8.71875 11.8437 8.71875H7.15625C6.94905 8.71875 6.75033 8.63644 6.60382 8.48993C6.45731 8.34342 6.375 8.1447 6.375 7.9375ZM7.15625 10.2813H10.2812C10.4884 10.2813 10.6872 10.3636 10.8337 10.5101C10.9802 10.6566 11.0625 10.8553 11.0625 11.0625C11.0625 11.2697 10.9802 11.4684 10.8337 11.6149C10.6872 11.7614 10.4884 11.8438 10.2812 11.8438H7.15625C6.94905 11.8438 6.75033 11.7614 6.60382 11.6149C6.45731 11.4684 6.375 11.2697 6.375 11.0625C6.375 10.8553 6.45731 10.6566 6.60382 10.5101C6.75033 10.3636 6.94905 10.2813 7.15625 10.2813Z" fill="#375FFF"/>
</svg>
