<svg width="20" height="20" viewBox="0 0 20 20" fill="none" xmlns="http://www.w3.org/2000/svg">
<path fill-rule="evenodd" clip-rule="evenodd" d="M6.5625 10.0001C6.5625 9.8343 6.62835 9.67533 6.74556 9.55812C6.86277 9.44091 7.02174 9.37506 7.1875 9.37506H16.3317L14.6975 7.97506C14.6351 7.92165 14.5839 7.85649 14.5467 7.78328C14.5095 7.71007 14.4871 7.63025 14.4807 7.54838C14.4744 7.46651 14.4842 7.38419 14.5097 7.30612C14.5352 7.22806 14.5758 7.15577 14.6292 7.09339C14.6826 7.03101 14.7477 6.97977 14.821 6.94257C14.8942 6.90538 14.974 6.88297 15.0559 6.87663C15.1377 6.87028 15.22 6.88012 15.2981 6.90559C15.3762 6.93106 15.4485 6.97165 15.5108 7.02506L18.4275 9.52506C18.4961 9.58373 18.5512 9.65658 18.589 9.73857C18.6267 9.82057 18.6463 9.90978 18.6463 10.0001C18.6463 10.0903 18.6267 10.1795 18.589 10.2615C18.5512 10.3435 18.4961 10.4164 18.4275 10.4751L15.5108 12.9751C15.3849 13.0829 15.2212 13.1363 15.0559 13.1235C14.8905 13.1107 14.737 13.0327 14.6292 12.9067C14.5213 12.7807 14.4679 12.6171 14.4807 12.4517C14.4936 12.2864 14.5715 12.1329 14.6975 12.0251L16.3308 10.6251H7.1875C7.02174 10.6251 6.86277 10.5592 6.74556 10.442C6.62835 10.3248 6.5625 10.1658 6.5625 10.0001Z" fill="white"/>
<path d="M12.1875 6.66675C12.1875 7.25175 12.1875 7.54425 12.0467 7.75508C11.986 7.84573 11.9081 7.92359 11.8175 7.98425C11.6067 8.12508 11.3142 8.12508 10.7292 8.12508H7.1875C6.69022 8.12508 6.21331 8.32263 5.86168 8.67426C5.51004 9.02589 5.3125 9.5028 5.3125 10.0001C5.3125 10.4974 5.51004 10.9743 5.86168 11.3259C6.21331 11.6775 6.69022 11.8751 7.1875 11.8751H10.7292C11.3142 11.8751 11.6067 11.8751 11.8175 12.0151C11.9082 12.076 11.9861 12.1541 12.0467 12.2451C12.1875 12.4559 12.1875 12.7484 12.1875 13.3334C12.1875 15.6901 12.1875 16.8692 11.455 17.6009C10.7233 18.3334 9.545 18.3334 7.18833 18.3334H6.355C3.99667 18.3334 2.81917 18.3334 2.08667 17.6009C1.35417 16.8692 1.35417 15.6901 1.35417 13.3334V6.66675C1.35417 4.31008 1.35417 3.13091 2.08667 2.39925C2.81917 1.66675 3.9975 1.66675 6.35417 1.66675H7.1875C9.545 1.66675 10.7233 1.66675 11.455 2.39925C12.1875 3.13091 12.1875 4.31008 12.1875 6.66675Z" fill="white"/>
</svg>
