<svg width="25" height="25" viewBox="0 0 25 25" fill="none" xmlns="http://www.w3.org/2000/svg">
<path d="M10.4166 12.5C10.4166 13.0525 10.6361 13.5824 11.0268 13.9731C11.4175 14.3638 11.9474 14.5833 12.5 14.5833C13.0525 14.5833 13.5824 14.3638 13.9731 13.9731C14.3638 13.5824 14.5833 13.0525 14.5833 12.5C14.5833 11.9475 14.3638 11.4176 13.9731 11.0269C13.5824 10.6361 13.0525 10.4167 12.5 10.4167C11.9474 10.4167 11.4175 10.6361 11.0268 11.0269C10.6361 11.4176 10.4166 11.9475 10.4166 12.5ZM10.4166 6.24999C10.4166 6.80252 10.6361 7.33243 11.0268 7.72313C11.4175 8.11383 11.9474 8.33332 12.5 8.33332C13.0525 8.33332 13.5824 8.11383 13.9731 7.72313C14.3638 7.33243 14.5833 6.80252 14.5833 6.24999C14.5833 5.69746 14.3638 5.16755 13.9731 4.77685C13.5824 4.38615 13.0525 4.16666 12.5 4.16666C11.9474 4.16666 11.4175 4.38615 11.0268 4.77685C10.6361 5.16755 10.4166 5.69746 10.4166 6.24999ZM10.4166 18.75C10.4166 19.3025 10.6361 19.8324 11.0268 20.2231C11.4175 20.6138 11.9474 20.8333 12.5 20.8333C13.0525 20.8333 13.5824 20.6138 13.9731 20.2231C14.3638 19.8324 14.5833 19.3025 14.5833 18.75C14.5833 18.1975 14.3638 17.6676 13.9731 17.2769C13.5824 16.8861 13.0525 16.6667 12.5 16.6667C11.9474 16.6667 11.4175 16.8861 11.0268 17.2769C10.6361 17.6676 10.4166 18.1975 10.4166 18.75Z" fill="#222648"/>
</svg>
