<svg width="23" height="23" viewBox="0 0 23 23" fill="none" xmlns="http://www.w3.org/2000/svg">
<path d="M11.3782 2C9.75167 1.99945 8.15303 2.42207 6.7393 3.22633C5.32557 4.03058 4.14541 5.1888 3.31476 6.58719C2.48411 7.98557 2.03157 9.57601 2.00159 11.2022C1.97162 12.8284 2.36524 14.4345 3.14378 15.8625L2.03441 19.7531C1.99537 19.8897 1.99433 20.0344 2.0314 20.1716C2.06847 20.3087 2.14224 20.4332 2.24477 20.5316C2.34731 20.6299 2.47473 20.6985 2.61331 20.7298C2.7519 20.7611 2.89641 20.7541 3.03128 20.7094L6.68441 19.4922C7.9295 20.2117 9.32342 20.6351 10.7583 20.7297C12.1932 20.8243 13.6307 20.5875 14.9595 20.0377C16.2882 19.4879 17.4727 18.6398 18.4213 17.5589C19.3698 16.4781 20.057 15.1936 20.4297 13.8047C20.8024 12.4158 20.8506 10.9598 20.5705 9.54927C20.2905 8.13878 19.6897 6.81161 18.8147 5.67044C17.9397 4.52927 16.8139 3.60469 15.5243 2.96823C14.2348 2.33177 12.8162 2.00048 11.3782 2ZM8.25316 9.8125C8.25316 9.6053 8.33547 9.40659 8.48198 9.26007C8.62849 9.11356 8.82721 9.03125 9.03441 9.03125H13.7219C13.9291 9.03125 14.1278 9.11356 14.2743 9.26007C14.4208 9.40659 14.5032 9.6053 14.5032 9.8125C14.5032 10.0197 14.4208 10.2184 14.2743 10.3649C14.1278 10.5114 13.9291 10.5938 13.7219 10.5938H9.03441C8.82721 10.5938 8.62849 10.5114 8.48198 10.3649C8.33547 10.2184 8.25316 10.0197 8.25316 9.8125ZM9.03441 12.1563H12.1594C12.3666 12.1563 12.5653 12.2386 12.7118 12.3851C12.8583 12.5316 12.9407 12.7303 12.9407 12.9375C12.9407 13.1447 12.8583 13.3434 12.7118 13.4899C12.5653 13.6364 12.3666 13.7188 12.1594 13.7188H9.03441C8.82721 13.7188 8.62849 13.6364 8.48198 13.4899C8.33547 13.3434 8.25316 13.1447 8.25316 12.9375C8.25316 12.7303 8.33547 12.5316 8.48198 12.3851C8.62849 12.2386 8.82721 12.1563 9.03441 12.1563Z" fill="white"/>
</svg>
