<svg width="25" height="25" viewBox="0 0 25 25" fill="none" xmlns="http://www.w3.org/2000/svg">
<path fill-rule="evenodd" clip-rule="evenodd" d="M14.9844 16.0896C13.5804 17.2114 11.8001 17.753 10.0092 17.6032C8.21837 17.4534 6.55284 16.6235 5.35472 15.2841C4.15659 13.9446 3.51682 12.1973 3.56681 10.4008C3.6168 8.60442 4.35274 6.89532 5.6235 5.62456C6.89425 4.35381 8.60335 3.61786 10.3998 3.56788C12.1962 3.51789 13.9436 4.15766 15.283 5.35579C16.6225 6.55391 17.4523 8.21944 17.6021 10.0103C17.7519 11.8012 17.2103 13.5814 16.0885 14.9854L21.4594 20.3552C21.5361 20.4267 21.5977 20.513 21.6404 20.6088C21.6831 20.7047 21.706 20.8081 21.7079 20.913C21.7097 21.0179 21.6904 21.1221 21.6511 21.2194C21.6119 21.3167 21.5534 21.405 21.4792 21.4792C21.405 21.5534 21.3166 21.6119 21.2194 21.6512C21.1221 21.6905 21.0179 21.7098 20.913 21.7079C20.8081 21.7061 20.7046 21.6831 20.6088 21.6404C20.513 21.5977 20.4267 21.5361 20.3552 21.4594L14.9844 16.0896ZM6.7281 14.4625C5.96356 13.6979 5.44285 12.7238 5.23176 11.6633C5.02068 10.6028 5.1287 9.50358 5.54218 8.50448C5.95566 7.50538 6.65603 6.65128 7.55479 6.05011C8.45354 5.44894 9.51034 5.12769 10.5916 5.12697C11.6729 5.12624 12.7301 5.44607 13.6297 6.04602C14.5292 6.64598 15.2308 7.49914 15.6456 8.49769C16.0604 9.49623 16.1699 10.5953 15.9603 11.6561C15.7506 12.7168 15.2312 13.6917 14.4677 14.4573L14.4625 14.4625L14.4573 14.4667C13.4313 15.4902 12.041 16.0647 10.5918 16.0639C9.1426 16.0632 7.75295 15.4872 6.7281 14.4625Z" fill="#222648"/>
</svg>
