<svg width="21" height="21" viewBox="0 0 21 21" fill="none" xmlns="http://www.w3.org/2000/svg">
<path fill-rule="evenodd" clip-rule="evenodd" d="M20.9226 9.23081C21.213 11.6148 20.6774 14.0263 19.4051 16.0632C18.1328 18.1001 16.2007 19.6393 13.931 20.4241C11.6612 21.2089 9.19103 21.192 6.93228 20.376C4.67354 19.5601 2.76276 17.9945 1.51856 15.9403C1.38315 15.717 1.342 15.4491 1.40415 15.1954C1.4663 14.9418 1.62666 14.7232 1.84997 14.5878C2.07327 14.4524 2.34122 14.4112 2.59487 14.4734C2.84852 14.5355 3.06709 14.6959 3.2025 14.9192C3.87272 16.0259 4.78588 16.9657 5.8729 17.6674C6.95992 18.3692 8.1923 18.8145 9.47681 18.9696C10.7613 19.1248 12.0643 18.9858 13.2871 18.5631C14.51 18.1404 15.6207 17.4451 16.5352 16.5298C17.4496 15.6145 18.1439 14.5032 18.5656 13.2799C18.9872 12.0567 19.125 10.7536 18.9687 9.46924C18.8124 8.18487 18.366 6.95288 17.6633 5.8665C16.9606 4.78011 16.02 3.86779 14.9126 3.19856C14.6891 3.0635 14.5285 2.84519 14.466 2.59167C14.4034 2.33814 14.4442 2.07017 14.5793 1.84669C14.7143 1.62321 14.9326 1.46254 15.1861 1.40002C15.4397 1.3375 15.7076 1.37825 15.9311 1.51331C17.2938 2.33702 18.4514 3.45987 19.3161 4.79691C20.1809 6.13395 20.7302 7.65016 20.9226 9.23081ZM11.8125 1.3125C11.8125 1.6606 11.6742 1.99444 11.4281 2.24058C11.1819 2.48672 10.8481 2.625 10.5 2.625C10.1519 2.625 9.81806 2.48672 9.57192 2.24058C9.32578 1.99444 9.1875 1.6606 9.1875 1.3125C9.1875 0.964403 9.32578 0.630564 9.57192 0.384422C9.81806 0.138281 10.1519 0 10.5 0C10.8481 0 11.1819 0.138281 11.4281 0.384422C11.6742 0.630564 11.8125 0.964403 11.8125 1.3125ZM3.68025 6.5625C3.76779 6.41318 3.82493 6.24801 3.84838 6.07651C3.87183 5.90502 3.86112 5.73058 3.81688 5.56323C3.77264 5.39589 3.69573 5.23895 3.59059 5.10145C3.48545 4.96395 3.35414 4.84861 3.20424 4.76206C3.05434 4.67551 2.8888 4.61947 2.71715 4.59716C2.5455 4.57485 2.37114 4.58671 2.20409 4.63206C2.03705 4.67741 1.88062 4.75536 1.74382 4.86141C1.60702 4.96746 1.49255 5.09953 1.407 5.25C1.2357 5.5513 1.19052 5.90812 1.28133 6.2426C1.37214 6.57708 1.59156 6.86206 1.89171 7.03536C2.19187 7.20866 2.54838 7.2562 2.88346 7.16761C3.21853 7.07902 3.50497 6.8615 3.68025 6.5625ZM1.3125 9.1875C1.6606 9.1875 1.99444 9.32578 2.24058 9.57192C2.48672 9.81806 2.625 10.1519 2.625 10.5C2.625 10.8481 2.48672 11.1819 2.24058 11.4281C1.99444 11.6742 1.6606 11.8125 1.3125 11.8125C0.964403 11.8125 0.630564 11.6742 0.384422 11.4281C0.138281 11.1819 0 10.8481 0 10.5C0 10.1519 0.138281 9.81806 0.384422 9.57192C0.630564 9.32578 0.964403 9.1875 1.3125 9.1875ZM6.5625 3.68025C6.71297 3.5947 6.84504 3.48023 6.95109 3.34343C7.05714 3.20663 7.13509 3.0502 7.18044 2.88316C7.22579 2.71611 7.23765 2.54175 7.21534 2.3701C7.19303 2.19845 7.13699 2.03291 7.05044 1.88301C6.96389 1.73311 6.84855 1.6018 6.71105 1.49666C6.57355 1.39152 6.41661 1.31461 6.24927 1.27037C6.08192 1.22613 5.90748 1.21542 5.73599 1.23887C5.56449 1.26232 5.39932 1.31946 5.25 1.407C4.951 1.58229 4.73348 1.86872 4.64489 2.20379C4.5563 2.53887 4.60384 2.89538 4.77714 3.19554C4.95044 3.49569 5.23542 3.71511 5.5699 3.80592C5.90438 3.89673 6.26121 3.85155 6.5625 3.68025Z" fill="white"/>
</svg>
